<?xml version="1.0" encoding="iso-8859-1"?>
<!-- Generator: Adobe Illustrator 19.0.0, SVG Export Plug-In . SVG Version: 6.00 Build 0)  -->
<svg version="1.1" id="Capa_1" xmlns="http://www.w3.org/2000/svg" xmlns:xlink="http://www.w3.org/1999/xlink" x="0px" y="0px"
	 viewBox="0 0 512 512" style="enable-background:new 0 0 512 512;" xml:space="preserve">
<path style="fill:#FF5050;" d="M94.388,188.776l17.492,313.159c0.315,5.647,4.986,10.064,10.642,10.064h267.095
	c5.577,0,10.183-4.356,10.494-9.924l17.5-313.299L94.388,188.776L94.388,188.776z"/>
<path style="fill:#ED3A3A;" d="M133.516,501.936l-17.492-313.159H94.388l17.492,313.159c0.315,5.647,4.986,10.064,10.642,10.064
	h21.635C138.503,512,133.831,507.583,133.516,501.936z"/>
<g>
	<path style="fill:#FFC850;" d="M255.999,283.801c34.04,0,67.276,9.793,95.727,27.906l4.248-122.93H156.026l4.247,122.93
		C188.725,293.594,221.961,283.801,255.999,283.801z"/>
	<path style="fill:#FFC850;" d="M337.292,365.712c-1.374,1.625-3.797,1.901-5.465,0.579c-21.506-17.05-48.283-26.399-75.827-26.399
		s-54.32,9.349-75.826,26.399c-1.667,1.321-4.091,1.046-5.465-0.579l-13.105-15.506l5.243,151.729
		c0.195,5.647,3.085,10.064,6.583,10.064h165.227c3.45,0,6.299-4.356,6.492-9.924l5.248-151.869L337.292,365.712z"/>
</g>
<g>
	<path style="fill:#FF5050;" d="M255.999,283.801c12.245,0,24.384,1.276,36.236,3.74l1.281-98.764h-75.032l1.28,98.764
		C231.617,285.076,243.755,283.801,255.999,283.801z"/>
	<path style="fill:#FF5050;" d="M255.999,339.892c-12.106,0-24.061,1.809-35.488,5.28l2.033,156.763
		c0.073,5.647,1.158,10.064,2.47,10.064h62.003c1.295,0,2.364-4.356,2.436-9.924l2.034-156.904
		C280.061,341.701,268.105,339.892,255.999,339.892z"/>
</g>
<path style="fill:#FCD592;" d="M90.429,150.915H421.57c1.94-4.108,3.127-8.64,3.363-13.441
	c0.887-18.098-11.413-33.476-28.126-37.376c-3.072-0.717-5.053-3.71-4.584-6.83c3.583-23.884-16.639-44.484-40.415-41.668
	c-3.409,0.403-6.552-1.749-7.422-5.071c-4.106-15.662-18.349-27.218-35.299-27.218c-5.246,0-10.231,1.109-14.738,3.103
	c-2.11,0.933-4.584,0.025-5.605-2.044C282.789,8.304,270.367,0,255.999,0c-14.438,0-26.913,8.387-32.833,20.552
	c-0.96,1.974-3.331,2.845-5.333,1.945c-21.465-9.636-46.25,3.356-50.731,26.271c-0.421,2.153-2.49,3.567-4.647,3.173
	c-24.992-4.57-47.071,17.314-42.492,42.45c0.461,2.531-1.162,4.963-3.684,5.471c-17.264,3.476-30.119,19.125-29.213,37.613
	C87.302,142.275,88.489,146.807,90.429,150.915z"/>
<g>
	<path style="fill:#FFC850;" d="M136.884,100.989c2.522-0.497,4.146-2.874,3.684-5.35c-4.576-24.553,17.473-45.987,42.492-41.512
		c2.158,0.385,4.227-0.998,4.647-3.103c2.946-14.733,15.154-26.215,30.455-28.417c-0.109-0.038-0.221-0.062-0.328-0.11
		c-21.466-9.635-46.25,3.356-50.731,26.271c-0.421,2.153-2.49,3.567-4.647,3.173c-25.003-4.572-47.07,17.327-42.492,42.45
		c0.461,2.531-1.162,4.963-3.684,5.471c-17.264,3.476-30.119,19.125-29.213,37.613c0.235,4.801,1.423,9.333,3.363,13.441h20.605
		c-1.94-4.017-3.127-8.449-3.363-13.144C106.765,119.692,119.62,104.388,136.884,100.989z"/>
	<path style="fill:#FFC850;" d="M223.518,22.218c5.316,0,10.365,1.115,14.92,3.114c2.002,0.88,4.373,0.028,5.333-1.903
		c5.261-10.573,15.706-18.212,28.099-19.784C267.072,1.321,261.693,0,255.999,0c-14.438,0-26.913,8.387-32.833,20.552
		c-0.36,0.741-0.919,1.326-1.583,1.721C222.225,22.24,222.87,22.218,223.518,22.218z"/>
</g>
<path style="fill:#F9B428;" d="M335.638,117.022c-3.25-12.399-14.483-21.058-27.317-21.058c-3.968,0-7.803,0.807-11.399,2.398
	c-5.886,2.603-12.727,0.116-15.579-5.66C276.543,82.973,266.832,76.93,256,76.93c-10.899,0-20.636,6.096-25.412,15.91
	c-1.867,3.837-6.493,5.434-10.329,3.567c-3.837-1.867-5.434-6.492-3.567-10.329c7.385-15.175,22.447-24.602,39.308-24.602
	c15.68,0,29.839,8.18,37.676,21.554c4.688-1.673,9.601-2.519,14.646-2.519c19.854,0,37.235,13.403,42.265,32.593
	c1.082,4.128-1.387,8.352-5.515,9.434C340.942,123.62,336.72,121.149,335.638,117.022z"/>
<path style="fill:#ED3A3A;" d="M435.74,190.576H76.261c-6.6,0-12-5.4-12-12v-17.834c0-6.6,5.4-12,12-12h359.477c6.6,0,12,5.4,12,12
	v17.834C447.74,185.176,442.339,190.576,435.74,190.576z"/>
<path style="fill:#DB3333;" d="M435.376,169.659H76.624c-6.151,0-11.275-4.557-12.2-10.458c-0.098,0.623-0.163,1.256-0.163,1.905
	v17.108c0,6.8,5.563,12.363,12.363,12.363h358.751c6.8,0,12.363-5.563,12.363-12.363v-17.108c0-0.649-0.066-1.282-0.163-1.905
	C446.651,165.102,441.526,169.659,435.376,169.659z"/>
<path style="fill:#E4EAF8;" d="M368.129,322.841c-31.642-25.508-71.464-39.555-112.13-39.555
	c-40.665,0-80.486,14.048-112.128,39.555c-0.965,0.778-1.561,1.882-1.678,3.108c-0.116,1.209,0.253,2.386,1.036,3.314l31.086,36.781
	c1.575,1.863,4.289,2.149,6.178,0.65c21.382-16.952,48.197-26.288,75.506-26.288c27.31,0,54.125,9.336,75.507,26.288
	c0.814,0.645,1.781,0.96,2.744,0.96c1.273,0,2.538-0.549,3.435-1.61l31.086-36.781c0.784-0.928,1.152-2.105,1.036-3.314
	C369.69,324.723,369.094,323.619,368.129,322.841z"/>
<path style="fill:#D8DCE5;" d="M157.355,345.977l16.96,20.067c1.575,1.863,4.289,2.149,6.178,0.65
	c21.382-16.952,48.197-26.288,75.506-26.288c27.31,0,54.125,9.336,75.507,26.288c0.814,0.645,1.781,0.96,2.744,0.96
	c1.273,0,2.538-0.549,3.435-1.61l16.96-20.067c-27.981-22.107-62.945-34.271-98.646-34.271
	C220.301,311.707,185.336,323.871,157.355,345.977z"/>
<g>
</g>
<g>
</g>
<g>
</g>
<g>
</g>
<g>
</g>
<g>
</g>
<g>
</g>
<g>
</g>
<g>
</g>
<g>
</g>
<g>
</g>
<g>
</g>
<g>
</g>
<g>
</g>
<g>
</g>
</svg>
