<svg id="Layer_1" enable-background="new 0 0 256 256" height="512" viewBox="0 0 256 256" width="512" xmlns="http://www.w3.org/2000/svg"><path d="m41.331 57.595c-2.177 0-4.22-.565-5.998-1.551v37.762 19.706 30.122h11.996v-30.122-19.707-37.761c-1.777.985-3.821 1.551-5.998 1.551z" fill="#e0ebfc"/><path d="m47.329 145.633h-11.996c-1.104 0-2-.896-2-2v-87.589c0-.708.375-1.364.984-1.723.612-.36 1.367-.369 1.985-.026 3.071 1.702 6.989 1.701 10.057 0 .619-.344 1.374-.334 1.984.026.61.359.985 1.015.985 1.723v87.589c.001 1.105-.894 2-1.999 2zm-9.996-4h7.996v-82.607c-2.592.75-5.404.75-7.996 0z" fill="#3762cc"/><circle cx="41.331" cy="51.661" fill="#a4c9ff" r="12.393"/><path d="m53.054 153.296h-23.445c-1.255 0-2.272-1.017-2.272-2.272v-.931c0-3.568 2.892-6.46 6.46-6.46h15.07c3.568 0 6.46 2.892 6.46 6.46v.931c0 1.255-1.018 2.272-2.273 2.272z" fill="#6bdddd"/><path d="m41.331 66.055c-7.937 0-14.393-6.457-14.393-14.393s6.456-14.394 14.393-14.394 14.394 6.457 14.394 14.394-6.457 14.393-14.394 14.393zm0-24.787c-5.73 0-10.393 4.663-10.393 10.394s4.662 10.393 10.393 10.393 10.394-4.662 10.394-10.393-4.662-10.394-10.394-10.394z" fill="#3762cc"/><path d="m226.391 153.296h-23.446c-1.255 0-2.272-1.017-2.272-2.272v-.931c0-3.568 2.892-6.46 6.46-6.46h15.07c3.568 0 6.46 2.892 6.46 6.46v.931c.001 1.255-1.017 2.272-2.272 2.272z" fill="#6bdddd"/><path d="m220.666 93.805v-37.761c-1.778.986-3.821 1.551-5.998 1.551s-4.22-.565-5.998-1.551v57.467 30.122h11.996z" fill="#e0ebfc"/><path d="m220.666 145.633h-11.995c-1.104 0-2-.896-2-2v-87.589c0-.708.375-1.364.985-1.723.609-.36 1.365-.369 1.984-.026 3.067 1.7 6.986 1.701 10.056 0 .618-.344 1.374-.334 1.984.026.61.359.985 1.015.985 1.723v87.589c.001 1.105-.894 2-1.999 2zm-9.995-4h7.995v-82.607c-2.59.75-5.403.75-7.995 0z" fill="#3762cc"/><path d="m47.59 69.541h-12.517c-2.118 0-3.836-1.717-3.836-3.836 0-2.118 1.717-3.836 3.836-3.836h12.517c2.118 0 3.836 1.717 3.836 3.836-.001 2.119-1.718 3.836-3.836 3.836z" fill="#6bdddd"/><path d="m47.59 71.542h-12.517c-3.218 0-5.836-2.618-5.836-5.835s2.618-5.836 5.836-5.836h12.517c3.218 0 5.835 2.618 5.835 5.835s-2.617 5.836-5.835 5.836zm-12.517-7.672c-1.013 0-1.836.823-1.836 1.835s.823 1.836 1.836 1.836h12.517c1.012 0 1.835-.823 1.835-1.835s-.823-1.836-1.835-1.836z" fill="#3762cc"/><path d="m53.055 155.296h-23.447c-2.355 0-4.272-1.917-4.272-4.272v-.931c0-4.665 3.795-8.46 8.46-8.46h15.07c4.665 0 8.46 3.795 8.46 8.46v.931c0 2.356-1.916 4.272-4.271 4.272zm-19.259-9.663c-2.459 0-4.46 2.001-4.46 4.46v.931c0 .15.122.272.272.272h23.446c.149 0 .271-.122.271-.272v-.931c0-2.459-2.001-4.46-4.46-4.46z" fill="#3762cc"/><path d="m226.392 155.296h-23.446c-2.355 0-4.271-1.917-4.271-4.272v-.931c0-4.665 3.795-8.46 8.46-8.46h15.07c4.665 0 8.46 3.795 8.46 8.46v.931c-.001 2.356-1.918 4.272-4.273 4.272zm-19.258-9.663c-2.459 0-4.46 2.001-4.46 4.46v.931c0 .15.122.272.271.272h23.446c.15 0 .272-.122.272-.272v-.931c0-2.459-2.001-4.46-4.46-4.46z" fill="#3762cc"/><circle cx="214.669" cy="51.661" fill="#a4c9ff" r="12.393"/><path d="m214.669 66.055c-7.937 0-14.394-6.457-14.394-14.393s6.457-14.394 14.394-14.394 14.393 6.457 14.393 14.394-6.457 14.393-14.393 14.393zm0-24.787c-5.731 0-10.394 4.663-10.394 10.394s4.662 10.393 10.394 10.393c5.73 0 10.393-4.662 10.393-10.393s-4.663-10.394-10.393-10.394z" fill="#3762cc"/><path d="m220.927 69.541h-12.517c-2.118 0-3.836-1.717-3.836-3.836 0-2.118 1.717-3.836 3.836-3.836h12.516c2.118 0 3.836 1.717 3.836 3.836 0 2.119-1.717 3.836-3.835 3.836z" fill="#6bdddd"/><path d="m220.927 71.542h-12.517c-3.218 0-5.835-2.618-5.835-5.835s2.617-5.836 5.835-5.836h12.517c3.218 0 5.836 2.618 5.836 5.835s-2.618 5.836-5.836 5.836zm-12.517-7.672c-1.012 0-1.835.823-1.835 1.835s.823 1.836 1.835 1.836h12.517c1.013 0 1.836-.823 1.836-1.835s-.823-1.836-1.836-1.836z" fill="#3762cc"/><path d="m167.485 11.245c-.328-1.883-1.824-3.245-3.564-3.245h-35.921-35.921c-1.741 0-3.236 1.362-3.565 3.245l-40.448 232c-.43 2.467 1.285 4.755 3.565 4.755h76.369 76.369c2.279 0 3.995-2.288 3.565-4.755z" fill="#f9a7a7"/><path d="m204.369 250h-152.738c-1.599 0-3.127-.726-4.191-1.992-1.176-1.398-1.665-3.259-1.344-5.106l40.448-232c.495-2.84 2.823-4.902 5.535-4.902h71.842c2.712 0 5.04 2.062 5.535 4.902l40.448 232c.321 1.848-.168 3.708-1.344 5.106-1.064 1.266-2.592 1.992-4.191 1.992zm-112.29-240c-.764 0-1.434.668-1.594 1.588l-40.448 232c-.117.67.057 1.36.464 1.845.178.211.562.566 1.13.566h152.738c.568 0 .952-.355 1.13-.566.407-.485.581-1.174.464-1.845l-40.448-232c-.16-.92-.83-1.588-1.594-1.588z" fill="#3762cc"/><path d="m23.331 108.767c-2.561 0-4.965-.665-7.056-1.824v44.425 23.183 35.438h14.113v-35.438-23.183-44.425c-2.092 1.159-4.495 1.824-7.057 1.824z" fill="#e0ebfc"/><path d="m30.388 211.989h-14.113c-1.104 0-2-.896-2-2v-103.046c0-.708.375-1.364.985-1.723.609-.36 1.365-.369 1.984-.026 3.713 2.059 8.46 2.059 12.173 0 .618-.344 1.374-.334 1.984.026.61.359.985 1.015.985 1.723v103.046c.002 1.105-.894 2-1.998 2zm-12.113-4h10.112v-98.014c-3.257 1.043-6.854 1.044-10.112 0z" fill="#3762cc"/><circle cx="23.331" cy="101.787" fill="#a4c9ff" r="14.58"/><path d="m37.123 221.358h-27.583c-1.476 0-2.673-1.197-2.673-2.673v-1.095c0-4.197 3.403-7.6 7.6-7.6h17.73c4.197 0 7.6 3.403 7.6 7.6v1.095c-.001 1.476-1.197 2.673-2.674 2.673z" fill="#6bdddd"/><path d="m23.331 118.367c-9.143 0-16.58-7.438-16.58-16.58s7.438-16.58 16.58-16.58 16.581 7.438 16.581 16.58-7.438 16.58-16.581 16.58zm0-29.16c-6.937 0-12.58 5.644-12.58 12.58s5.644 12.58 12.58 12.58c6.938 0 12.581-5.644 12.581-12.58s-5.643-12.58-12.581-12.58z" fill="#3762cc"/><path d="m30.694 122.822h-14.725c-2.492 0-4.512-2.02-4.512-4.512 0-2.492 2.02-4.512 4.512-4.512h14.725c2.492 0 4.512 2.02 4.512 4.512 0 2.492-2.02 4.512-4.512 4.512z" fill="#6bdddd"/><path d="m30.694 124.822h-14.725c-3.591 0-6.513-2.921-6.513-6.512s2.922-6.513 6.513-6.513h14.726c3.591 0 6.512 2.921 6.512 6.513-.001 3.591-2.922 6.512-6.513 6.512zm-14.725-9.025c-1.386 0-2.513 1.127-2.513 2.513 0 1.385 1.127 2.512 2.513 2.512h14.726c1.385 0 2.512-1.127 2.512-2.512 0-1.386-1.127-2.513-2.512-2.513z" fill="#3762cc"/><path d="m37.123 223.358h-27.583c-2.577 0-4.674-2.097-4.674-4.673v-1.095c0-5.293 4.307-9.6 9.601-9.6h17.729c5.293 0 9.6 4.307 9.6 9.6v1.095c0 2.576-2.097 4.673-4.673 4.673zm-22.656-11.369c-3.088 0-5.601 2.512-5.601 5.6v1.095c0 .371.303.673.674.673h27.583c.371 0 .673-.302.673-.673v-1.095c0-3.088-2.512-5.6-5.6-5.6z" fill="#3762cc"/><path d="m246.46 221.358h-27.583c-1.476 0-2.673-1.197-2.673-2.673v-1.095c0-4.197 3.403-7.6 7.6-7.6h17.73c4.197 0 7.6 3.403 7.6 7.6v1.095c-.001 1.476-1.197 2.673-2.674 2.673z" fill="#6bdddd"/><path d="m239.725 151.368v-44.425c-2.092 1.16-4.495 1.824-7.056 1.824s-4.965-.665-7.056-1.824v67.609 35.438h14.113z" fill="#e0ebfc"/><path d="m239.725 211.989h-14.112c-1.104 0-2-.896-2-2v-103.046c0-.708.375-1.364.985-1.723.61-.36 1.366-.369 1.984-.026 3.714 2.059 8.463 2.058 12.173 0 .619-.344 1.375-.334 1.984.025.61.36.985 1.015.985 1.724v103.046c.001 1.105-.895 2-1.999 2zm-12.113-4h10.112v-98.014c-3.258 1.043-6.854 1.043-10.112 0z" fill="#3762cc"/><path d="m246.46 223.358h-27.583c-2.576 0-4.673-2.097-4.673-4.673v-1.095c0-5.293 4.307-9.6 9.6-9.6h17.729c5.294 0 9.601 4.307 9.601 9.6v1.095c0 2.576-2.097 4.673-4.674 4.673zm-22.656-11.369c-3.088 0-5.6 2.512-5.6 5.6v1.095c0 .371.302.673.673.673h27.583c.371 0 .674-.302.674-.673v-1.095c0-3.088-2.513-5.6-5.601-5.6z" fill="#3762cc"/><circle cx="232.669" cy="101.787" fill="#a4c9ff" r="14.58"/><path d="m232.669 118.367c-9.143 0-16.581-7.438-16.581-16.58s7.438-16.58 16.581-16.58 16.58 7.438 16.58 16.58-7.437 16.58-16.58 16.58zm0-29.16c-6.938 0-12.581 5.644-12.581 12.58s5.644 12.58 12.581 12.58 12.58-5.644 12.58-12.58-5.644-12.58-12.58-12.58z" fill="#3762cc"/><path d="m240.031 122.822h-14.725c-2.492 0-4.512-2.02-4.512-4.512 0-2.492 2.02-4.512 4.512-4.512h14.725c2.492 0 4.512 2.02 4.512 4.512.001 2.492-2.02 4.512-4.512 4.512z" fill="#6bdddd"/><path d="m240.031 124.822h-14.726c-3.591 0-6.512-2.921-6.512-6.512s2.921-6.513 6.512-6.513h14.726c3.591 0 6.513 2.921 6.513 6.513 0 3.591-2.922 6.512-6.513 6.512zm-14.725-9.025c-1.385 0-2.512 1.127-2.512 2.513 0 1.385 1.127 2.512 2.512 2.512h14.726c1.386 0 2.513-1.127 2.513-2.512 0-1.386-1.127-2.513-2.513-2.513z" fill="#3762cc"/><path d="m191.969 172.247h-127.938c-1.663 0-3.01-1.348-3.01-3.01v-138.474c0-1.663 1.348-3.01 3.01-3.01h127.937c1.663 0 3.01 1.348 3.01 3.01v138.473c.001 1.663-1.347 3.011-3.009 3.011z" fill="#4671c6"/><path d="m164.575 147.873h-73.15c-1.33 0-2.408-1.078-2.408-2.408v-90.93c0-1.33 1.078-2.408 2.408-2.408h73.15c1.33 0 2.408 1.078 2.408 2.408v90.929c0 1.331-1.078 2.409-2.408 2.409z" fill="#e0ebfc"/><path d="m166.983 172.247h-77.966v-6.933c0-1.33 1.078-2.408 2.408-2.408h73.15c1.33 0 2.408 1.078 2.408 2.408z" fill="#e0ebfc"/><path d="m164.575 37.094h-73.15c-1.33 0-2.408-1.078-2.408-2.408v-6.933h77.966v6.933c0 1.33-1.078 2.408-2.408 2.408z" fill="#e0ebfc"/><path d="m80.127 162.906h-10.216c-1.33 0-2.408-1.078-2.408-2.408v-10.216c0-1.33 1.078-2.408 2.408-2.408h10.216c1.33 0 2.408 1.078 2.408 2.408v10.216c0 1.329-1.078 2.408-2.408 2.408z" fill="#a4c9ff"/><path d="m80.127 135.211h-10.216c-1.33 0-2.408-1.078-2.408-2.408v-10.216c0-1.33 1.078-2.408 2.408-2.408h10.216c1.33 0 2.408 1.078 2.408 2.408v10.216c0 1.33-1.078 2.408-2.408 2.408z" fill="#a4c9ff"/><path d="m80.127 107.516h-10.216c-1.33 0-2.408-1.078-2.408-2.408v-10.216c0-1.33 1.078-2.408 2.408-2.408h10.216c1.33 0 2.408 1.078 2.408 2.408v10.216c0 1.33-1.078 2.408-2.408 2.408z" fill="#a4c9ff"/><path d="m80.425 52.425h-10.216c-1.33 0-2.408-1.078-2.408-2.408v-10.216c0-1.33 1.078-2.408 2.408-2.408h10.216c1.33 0 2.408 1.078 2.408 2.408v10.216c.001 1.33-1.078 2.408-2.408 2.408z" fill="#a4c9ff"/><path d="m186.387 163.204h-10.216c-1.33 0-2.408-1.078-2.408-2.408v-10.216c0-1.33 1.078-2.408 2.408-2.408h10.216c1.33 0 2.408 1.078 2.408 2.408v10.216c.001 1.33-1.078 2.408-2.408 2.408z" fill="#a4c9ff"/><path d="m186.387 52.425h-10.216c-1.33 0-2.408-1.078-2.408-2.408v-10.216c0-1.33 1.078-2.408 2.408-2.408h10.216c1.33 0 2.408 1.078 2.408 2.408v10.216c.001 1.33-1.078 2.408-2.408 2.408z" fill="#a4c9ff"/><path d="m80.127 79.822h-10.216c-1.33 0-2.408-1.078-2.408-2.408v-10.217c0-1.33 1.078-2.408 2.408-2.408h10.216c1.33 0 2.408 1.078 2.408 2.408v10.216c0 1.331-1.078 2.409-2.408 2.409z" fill="#a4c9ff"/><path d="m186.089 135.211h-10.216c-1.33 0-2.408-1.078-2.408-2.408v-10.216c0-1.33 1.078-2.408 2.408-2.408h10.216c1.33 0 2.408 1.078 2.408 2.408v10.216c0 1.33-1.078 2.408-2.408 2.408z" fill="#a4c9ff"/><path d="m186.089 107.516h-10.216c-1.33 0-2.408-1.078-2.408-2.408v-10.216c0-1.33 1.078-2.408 2.408-2.408h10.216c1.33 0 2.408 1.078 2.408 2.408v10.216c0 1.33-1.078 2.408-2.408 2.408z" fill="#a4c9ff"/><path d="m186.089 79.822h-10.216c-1.33 0-2.408-1.078-2.408-2.408v-10.217c0-1.33 1.078-2.408 2.408-2.408h10.216c1.33 0 2.408 1.078 2.408 2.408v10.216c0 1.331-1.078 2.409-2.408 2.409z" fill="#a4c9ff"/><g fill="#3762cc"><path d="m80.127 164.906h-10.216c-2.431 0-4.408-1.978-4.408-4.408v-10.216c0-2.431 1.978-4.408 4.408-4.408h10.216c2.431 0 4.408 1.978 4.408 4.408v10.216c0 2.43-1.977 4.408-4.408 4.408zm-10.216-15.033c-.225 0-.408.183-.408.408v10.216c0 .225.184.408.408.408h10.216c.225 0 .408-.183.408-.408v-10.216c0-.225-.184-.408-.408-.408z"/><path d="m80.127 137.211h-10.216c-2.431 0-4.408-1.978-4.408-4.408v-10.216c0-2.431 1.978-4.408 4.408-4.408h10.216c2.431 0 4.408 1.978 4.408 4.408v10.216c0 2.43-1.977 4.408-4.408 4.408zm-10.216-15.033c-.225 0-.408.183-.408.408v10.216c0 .225.184.408.408.408h10.216c.225 0 .408-.183.408-.408v-10.216c0-.225-.184-.408-.408-.408z"/><path d="m80.127 109.517h-10.216c-2.431 0-4.408-1.978-4.408-4.409v-10.216c0-2.431 1.978-4.409 4.408-4.409h10.216c2.431 0 4.408 1.978 4.408 4.409v10.216c0 2.431-1.977 4.409-4.408 4.409zm-10.216-15.034c-.225 0-.408.183-.408.409v10.216c0 .226.184.409.408.409h10.216c.225 0 .408-.183.408-.409v-10.216c0-.226-.184-.409-.408-.409z"/><path d="m80.426 54.425h-10.217c-2.431 0-4.408-1.978-4.408-4.408v-10.216c0-2.431 1.978-4.408 4.408-4.408h10.217c2.431 0 4.408 1.978 4.408 4.408v10.216c0 2.431-1.978 4.408-4.408 4.408zm-10.217-15.032c-.225 0-.408.183-.408.408v10.216c0 .225.184.408.408.408h10.217c.225 0 .408-.183.408-.408v-10.216c0-.225-.184-.408-.408-.408z"/><path d="m186.388 165.204h-10.217c-2.431 0-4.408-1.978-4.408-4.408v-10.216c0-2.431 1.978-4.408 4.408-4.408h10.217c2.431 0 4.408 1.978 4.408 4.408v10.216c0 2.43-1.978 4.408-4.408 4.408zm-10.217-15.033c-.225 0-.408.183-.408.408v10.216c0 .225.184.408.408.408h10.217c.225 0 .408-.183.408-.408v-10.216c0-.225-.184-.408-.408-.408z"/><path d="m186.388 54.425h-10.217c-2.431 0-4.408-1.978-4.408-4.408v-10.216c0-2.431 1.978-4.408 4.408-4.408h10.217c2.431 0 4.408 1.978 4.408 4.408v10.216c0 2.431-1.978 4.408-4.408 4.408zm-10.217-15.032c-.225 0-.408.183-.408.408v10.216c0 .225.184.408.408.408h10.217c.225 0 .408-.183.408-.408v-10.216c0-.225-.184-.408-.408-.408z"/><path d="m80.127 81.822h-10.216c-2.431 0-4.408-1.978-4.408-4.408v-10.217c0-2.431 1.978-4.408 4.408-4.408h10.216c2.431 0 4.408 1.978 4.408 4.408v10.216c0 2.431-1.977 4.409-4.408 4.409zm-10.216-15.033c-.225 0-.408.183-.408.408v10.216c0 .225.184.408.408.408h10.216c.225 0 .408-.183.408-.408v-10.216c0-.225-.184-.408-.408-.408z"/><path d="m186.089 137.211h-10.216c-2.431 0-4.408-1.978-4.408-4.408v-10.216c0-2.431 1.978-4.408 4.408-4.408h10.216c2.431 0 4.408 1.978 4.408 4.408v10.216c0 2.43-1.977 4.408-4.408 4.408zm-10.216-15.033c-.225 0-.408.183-.408.408v10.216c0 .225.184.408.408.408h10.216c.225 0 .408-.183.408-.408v-10.216c0-.225-.184-.408-.408-.408z"/><path d="m186.089 109.517h-10.216c-2.431 0-4.408-1.978-4.408-4.409v-10.216c0-2.431 1.978-4.409 4.408-4.409h10.216c2.431 0 4.408 1.978 4.408 4.409v10.216c0 2.431-1.977 4.409-4.408 4.409zm-10.216-15.034c-.225 0-.408.183-.408.409v10.216c0 .226.184.409.408.409h10.216c.225 0 .408-.183.408-.409v-10.216c0-.226-.184-.409-.408-.409z"/><path d="m186.089 81.822h-10.216c-2.431 0-4.408-1.978-4.408-4.408v-10.217c0-2.431 1.978-4.408 4.408-4.408h10.216c2.431 0 4.408 1.978 4.408 4.408v10.216c0 2.431-1.977 4.409-4.408 4.409zm-10.216-15.033c-.225 0-.408.183-.408.408v10.216c0 .225.184.408.408.408h10.216c.225 0 .408-.183.408-.408v-10.216c0-.225-.184-.408-.408-.408z"/><path d="m191.969 174.247h-127.938c-2.763 0-5.01-2.248-5.01-5.01v-138.473c0-2.763 2.247-5.01 5.01-5.01h127.938c2.763 0 5.01 2.248 5.01 5.01v138.473c0 2.762-2.248 5.01-5.01 5.01zm-127.938-144.494c-.557 0-1.01.453-1.01 1.01v138.473c0 .557.453 1.01 1.01 1.01h127.938c.557 0 1.01-.453 1.01-1.01v-138.472c0-.557-.453-1.01-1.01-1.01h-127.938z"/><path d="m164.575 149.873h-73.15c-2.431 0-4.408-1.978-4.408-4.408v-90.93c0-2.431 1.978-4.408 4.408-4.408h73.15c2.431 0 4.408 1.978 4.408 4.408v90.93c0 2.431-1.977 4.408-4.408 4.408zm-73.15-95.746c-.225 0-.408.183-.408.408v90.93c0 .225.184.408.408.408h73.15c.225 0 .408-.183.408-.408v-90.93c0-.225-.184-.408-.408-.408z"/><path d="m166.983 174.247h-77.966c-1.104 0-2-.896-2-2v-6.933c0-2.431 1.978-4.408 4.408-4.408h73.15c2.431 0 4.408 1.978 4.408 4.408v6.933c0 1.104-.895 2-2 2zm-75.966-4h73.967v-4.933c0-.225-.184-.408-.408-.408h-73.15c-.225 0-.408.183-.408.408v4.933z"/><path d="m164.575 39.094h-73.15c-2.431 0-4.408-1.978-4.408-4.408v-6.933c0-1.104.896-2 2-2h77.967c1.104 0 2 .896 2 2v6.933c-.001 2.431-1.978 4.408-4.409 4.408zm-73.558-9.341v4.933c0 .225.184.408.408.408h73.15c.225 0 .408-.183.408-.408v-4.933z"/></g><path d="m130.834 76.51 5.582 11.311c.437.885 1.282 1.499 2.259 1.641l12.482 1.814c2.461.358 3.443 3.381 1.663 5.117l-9.032 8.804c-.707.689-1.03 1.682-.863 2.655l2.132 12.432c.42 2.451-2.152 4.32-4.353 3.163l-11.164-5.869c-.874-.459-1.918-.459-2.792 0l-11.164 5.869c-2.201 1.157-4.773-.712-4.353-3.163l2.132-12.432c.167-.973-.156-1.966-.863-2.655l-9.032-8.804c-1.781-1.736-.798-4.76 1.663-5.117l12.482-1.814c.977-.142 1.822-.756 2.259-1.641l5.582-11.311c1.1-2.23 4.28-2.23 5.38 0z" fill="#ffea92"/><path d="m142.105 125.796c-.795 0-1.594-.192-2.332-.58l-11.164-5.87c-.292-.153-.641-.152-.931 0l-11.164 5.869c-1.698.892-3.714.746-5.266-.38-1.551-1.127-2.313-3.001-1.99-4.891l2.133-12.432c.056-.324-.052-.655-.287-.884l-9.033-8.805c-1.372-1.338-1.857-3.302-1.265-5.125s2.139-3.127 4.036-3.403l12.483-1.813c.325-.047.606-.252.753-.548l5.581-11.31c.848-1.719 2.565-2.787 4.482-2.787h.001c1.917 0 3.636 1.068 4.484 2.787l5.582 11.311c.146.295.427.5.753.547l12.481 1.813c1.898.276 3.445 1.58 4.037 3.404.592 1.823.106 3.787-1.267 5.125l-9.03 8.804c-.236.23-.344.561-.289.885l2.133 12.432c.324 1.889-.438 3.763-1.989 4.89-.874.638-1.899.961-2.932.961zm-13.96-10.564c.799 0 1.598.191 2.326.574l11.164 5.87c.495.259.901.034 1.054-.076.15-.11.492-.425.397-.978l-2.133-12.432c-.278-1.622.26-3.276 1.439-4.426l9.03-8.804c.402-.392.312-.847.254-1.025s-.252-.6-.808-.681l-12.481-1.813c-1.629-.237-3.035-1.259-3.765-2.734l-5.583-11.312c-.248-.503-.71-.558-.896-.558s-.647.054-.896.557l-5.582 11.312c-.73 1.476-2.137 2.498-3.765 2.735l-12.483 1.813c-.555.081-.749.503-.807.681-.059.178-.149.633.253 1.025l9.032 8.804c1.179 1.149 1.717 2.803 1.438 4.426l-2.132 12.432c-.095.553.246.868.397.978.152.11.559.336 1.054.076l11.164-5.869c.73-.384 1.529-.575 2.329-.575z" fill="#3762cc"/></svg>