<svg id="Capa_1" enable-background="new 0 0 512 512" height="512" viewBox="0 0 512 512" width="512" xmlns="http://www.w3.org/2000/svg"><g><circle cx="256" cy="256" fill="#fff5f5" r="240.99"/><path d="m496.99 256c0 133.1-107.89 240.99-240.99 240.99v-481.98c133.1 0 240.99 107.9 240.99 240.99z" fill="#e4e4ed"/><path d="m416 162.13v208h-320v-208h93.88l21.37-34.12h89.5l21.37 34.12z" fill="#4e5166"/><path d="m416 162.13v208h-160v-242.12h44.75l21.37 34.12z" fill="#393f4d"/><ellipse cx="256" cy="256.01" fill="#67c5f5" rx="69.29" ry="69.29" transform="matrix(.16 -.987 .987 .16 -37.711 467.696)"/><path d="m325.29 256.01c0 38.27-31.02 69.29-69.29 69.29v-138.58c38.27 0 69.29 31.02 69.29 69.29z" fill="#3395f5"/><path d="m437.02 74.98c-48.35-48.35-112.64-74.98-181.02-74.98s-132.67 26.63-181.02 74.98-74.98 112.64-74.98 181.02 26.63 132.67 74.98 181.02 112.64 74.98 181.02 74.98 132.67-26.63 181.02-74.98 74.98-112.64 74.98-181.02-26.63-132.67-74.98-181.02zm-181.02 407.02c-60.37 0-117.12-23.51-159.81-66.19-42.68-42.69-66.19-99.44-66.19-159.81 0-55.34 19.77-107.63 55.94-148.84l170.06 170.07 148.84 148.84c-41.21 36.16-93.5 55.93-148.84 55.93zm170.06-77.15-170.06-170.05-148.85-148.85c41.22-36.18 93.51-55.95 148.85-55.95 60.37 0 117.12 23.51 159.81 66.2 42.68 42.68 66.19 99.43 66.19 159.8 0 55.34-19.77 107.64-55.94 148.85z" fill="#fa473c"/><path d="m512 256c0 68.38-26.63 132.67-74.98 181.02s-112.64 74.98-181.02 74.98v-30c55.34 0 107.63-19.77 148.84-55.93l-148.84-148.84v-42.43l170.06 170.05c36.17-41.21 55.94-93.51 55.94-148.85 0-60.37-23.51-117.12-66.19-159.8-42.69-42.69-99.44-66.2-159.81-66.2v-30c68.38 0 132.67 26.63 181.02 74.98s74.98 112.64 74.98 181.02z" fill="#ce2a3d"/></g></svg>